<?xml version="1.0" encoding="utf-8"?>
<!-- Generator: Adobe Illustrator 24.0.2, SVG Export Plug-In . SVG Version: 6.00 Build 0)  -->
<svg version="1.1" id="Layer_1" xmlns="http://www.w3.org/2000/svg" xmlns:xlink="http://www.w3.org/1999/xlink" x="0px" y="0px"
	 width="2544.2px" height="794.9px" viewBox="0 0 2544.2 794.9" style="enable-background:new 0 0 2544.2 794.9;"
	 xml:space="preserve">
<style type="text/css">
	.st0{fill:#F4F4F4;stroke:#D6D6D6;stroke-miterlimit:10;}
	.st1{fill:none;}
	.st2{fill:#2B2B2B;}
	.st3{font-family:'MyriadPro-Regular';}
	.st4{font-size:32px;}
	.st5{font-size:51px;}
	.st6{fill:none;stroke:#7A7A7A;stroke-width:8;stroke-miterlimit:10;}
	.st7{fill:#7A7A7A;}
	.st8{fill:#A8A8A8;}
	.st9{font-size:29px;}
	.st10{fill:none;stroke:#DBDAD9;stroke-width:8;stroke-miterlimit:10;stroke-dasharray:12;}
	.st11{fill:#EA9DDB;}
	.st12{fill:#E10098;}
	.st13{fill:#C1DDEA;}
	.st14{fill:#417FB1;}
	.st15{fill:#464547;}
	.st16{fill:#74B5B5;}
	.st17{fill:#418A8B;}
	.st18{fill:#4A9EA0;}
	.st19{fill-opacity:0.251;}
	.st20{fill-opacity:3.921600e-02;}
	.st21{fill-opacity:0.1302;}
	.st22{fill:#C3ACEA;}
	.st23{fill:#353535;}
	.st24{fill:#7D4BC1;}
	.st25{fill:none;stroke:#C1C1C1;stroke-width:8;stroke-miterlimit:10;stroke-dasharray:12;}
	.st26{fill:#333333;}
	.st27{fill:#DBDBDB;}
</style>
<g>
	<rect x="1624.7" y="155.5" class="st0" width="149.7" height="536"/>
	<path class="st0" d="M1773.9,156v535h-148.7V156H1773.9 M1775,155h-150.8v537H1775V155L1775,155z"/>
</g>
<g>
	<rect x="628.5" y="155.5" class="st0" width="536" height="536"/>
	<path class="st0" d="M1164,156v535H629V156H1164 M1165,155H628v537h537V155L1165,155z"/>
</g>
<rect x="2267.6" y="261.5" class="st1" width="122.9" height="57.1"/>
<rect x="1799.7" y="261" class="st1" width="220" height="84"/>
<rect x="1861" y="382" class="st1" width="220" height="84"/>
<g>
	<text transform="matrix(1 0 0 1 1655.4443 434.632)" class="st2 st3 st4">AUTH</text>
</g>
<rect x="757" y="239" class="st1" width="220" height="84"/>
<text transform="matrix(1 0 0 1 809.6843 599.2175)" class="st2 st3 st5">CLIENT</text>
<g>
	<g>
		<line class="st6" x1="1328.7" y1="578.4" x2="1517.7" y2="578.4"/>
		<g>
			<polygon class="st7" points="1333.3,594.3 1305.7,578.4 1333.3,562.4 			"/>
		</g>
	</g>
</g>
<rect x="1291" y="585.4" class="st1" width="246.7" height="32.6"/>
<text transform="matrix(1 0 0 1 1339.5797 606.0137)" class="st8 st3 st9">subscription</text>
<g>
	<g>
		<line class="st6" x1="560.4" y1="382.4" x2="371.3" y2="382.4"/>
		<g>
			<polygon class="st7" points="555.7,366.4 583.3,382.4 555.7,398.3 			"/>
		</g>
	</g>
</g>
<rect x="346.6" y="409.4" class="st1" width="246.7" height="32.6"/>
<text transform="matrix(1 0 0 1 377.7368 430.0138)" class="st8 st3 st9">Read messages</text>
<g>
	<g>
		<line class="st6" x1="1494.8" y1="223" x2="1305.7" y2="223"/>
		<g>
			<polygon class="st7" points="1490.1,207.1 1517.7,223 1490.1,239 			"/>
		</g>
	</g>
</g>
<g>
	<g>
		<line class="st6" x1="1288.7" y1="252.1" x2="1477.7" y2="252.1"/>
		<g>
			<polygon class="st7" points="1293.3,268.1 1265.7,252.1 1293.3,236.2 			"/>
		</g>
	</g>
</g>
<rect x="1276" y="268.4" class="st1" width="246.7" height="32.6"/>
<text transform="matrix(1 0 0 1 1318.5328 289.0138)" class="st8 st3 st9">access_token</text>
<rect x="1275" y="180.7" class="st1" width="246.7" height="32.6"/>
<text transform="matrix(1 0 0 1 1321.506 201.3039)" class="st8 st3 st9">authenticate</text>
<rect x="1634" y="80" class="st1" width="812" height="32.6"/>
<text transform="matrix(1 0 0 1 1983.4469 100.5438)" class="st8 st3 st9">Publisher</text>
<rect x="113.9" y="80" class="st1" width="246.7" height="32.6"/>
<text transform="matrix(1 0 0 1 195.0268 100.5443)" class="st8 st3 st9">Reader</text>
<g>
	<g>
		<line class="st6" x1="1454.8" y1="384.2" x2="1265.7" y2="384.2"/>
		<g>
			<polygon class="st7" points="1450.1,368.3 1477.7,384.2 1450.1,400.2 			"/>
		</g>
	</g>
</g>
<rect x="1217" y="351.9" class="st1" width="246.7" height="32.6"/>
<text transform="matrix(1 0 0 1 1239.0162 372.4704)" class="st8 st3 st9">publish message</text>
<g>
	<g>
		<line class="st6" x1="1504.8" y1="438.7" x2="1315.7" y2="438.7"/>
		<g>
			<polygon class="st7" points="1500.1,422.7 1527.7,438.7 1500.1,454.6 			"/>
		</g>
	</g>
</g>
<rect x="1273" y="406.3" class="st1" width="246.7" height="32.6"/>
<text transform="matrix(1 0 0 1 1296.6398 426.927)" class="st8 st3 st9">update message</text>
<g>
	<g>
		<line class="st6" x1="1555.8" y1="491.7" x2="1366.7" y2="491.7"/>
		<g>
			<polygon class="st7" points="1551.1,475.8 1578.7,491.7 1551.1,507.7 			"/>
		</g>
	</g>
</g>
<rect x="1330" y="460.4" class="st1" width="246.7" height="32.6"/>
<text transform="matrix(1 0 0 1 1358.9176 480.9753)" class="st8 st3 st9">delete message</text>
<rect x="44.3" y="39.8" class="st10" width="2461" height="698.8"/>
<g>
	<g>
		<rect x="1790.2" y="155.6" class="st11" width="241" height="259"/>
		<path class="st11" d="M2030.7,156.1v258h-240v-258H2030.7 M2031.7,155h-242v260.1h242V155L2031.7,155z"/>
	</g>
	<text transform="matrix(1 0 0 1 1803.9806 374.5259)" class="st12 st3 st5">G</text>
	<text transform="matrix(1 0 0 1 1836.8806 374.5259)" class="st12 st3 st5">R</text>
	<text transform="matrix(1 0 0 1 1864.5806 374.5259)" class="st12 st3 st5">APHQL</text>
	<path class="st12" d="M1962.6,254c-1-0.6-2-1-3.1-1.2v-31.4c1.1-0.3,2.1-0.7,3.1-1.2c5.6-3.3,7.6-10.5,4.3-16.1
		c-3.3-5.6-10.5-7.6-16.1-4.3c-1,0.6-1.9,1.3-2.7,2.1l-27.2-15.7c0.3-1.1,0.5-2.2,0.5-3.4c0-6.5-5.3-11.8-11.8-11.8
		s-11.8,5.3-11.8,11.8c0,1.2,0.2,2.3,0.5,3.3l-27.2,15.7c-0.8-0.8-1.6-1.5-2.7-2.1c-5.6-3.2-12.9-1.3-16.1,4.3s-1.3,12.9,4.3,16.1
		c1,0.6,2.1,1,3.1,1.2v31.4c-1.1,0.3-2.1,0.7-3.1,1.2c-5.6,3.3-7.6,10.5-4.3,16.1s10.4,7.6,16.1,4.3c1-0.6,1.9-1.3,2.6-2.1
		l27.2,15.7c-0.3,1.1-0.5,2.2-0.5,3.3c0,6.5,5.3,11.8,11.8,11.8s11.8-5.3,11.8-11.8c0-1.3-0.2-2.5-0.6-3.7l27-15.6
		c0.8,0.9,1.8,1.7,2.9,2.4c5.6,3.2,12.9,1.3,16.1-4.3C1970.2,264.5,1968.2,257.3,1962.6,254z M1874.2,261.5
		c-0.3-1.1-0.7-2.1-1.2-3.1c-0.6-1-1.3-1.9-2.1-2.6l35.6-61.6c1,0.3,2.1,0.5,3.3,0.5c1.1,0,2.2-0.2,3.3-0.5l35.6,61.6
		c-0.8,0.8-1.5,1.6-2.1,2.6c-0.6,1-1,2-1.2,3.1H1874.2z M1945.4,206.7c-0.8,3-0.5,6.2,1.1,9.1c1.7,2.9,4.4,4.8,7.4,5.5v31.4
		c-0.2,0-0.3,0.1-0.5,0.1l-35.6-61.6c0.1-0.1,0.2-0.2,0.3-0.3L1945.4,206.7z M1901.2,191c0.1,0.1,0.2,0.2,0.3,0.3l-35.6,61.6
		c-0.2,0-0.3-0.1-0.5-0.1v-31.4c3-0.7,5.7-2.7,7.4-5.5c1.7-2.9,2-6.2,1.1-9.1L1901.2,191z M1918.4,283.5c-2.2-2.4-5.3-3.8-8.7-3.8
		c-3.3,0-6.3,1.4-8.5,3.6l-27.2-15.7c0-0.2,0.1-0.3,0.1-0.5h71.1c0.1,0.3,0.1,0.5,0.2,0.8L1918.4,283.5z"/>
</g>
<g>
	<g>
		<rect x="1790.2" y="425.5" class="st13" width="241" height="266"/>
		<path class="st13" d="M2030.7,426v265h-240V426H2030.7 M2031.7,425h-242V692h242V425L2031.7,425z"/>
	</g>
	<g id="MI9Dye_1_">
		<g>
			<path class="st14" d="M1843.1,560.5c2.3,1.3,3.2,3.5,3.9,5.8c0.7,2.3,1.1,4.8,1.9,7.1c0.4,1.4,0,1.5-1.2,1.6
				c-4.2,0.2-4.2,0.2-5.3-3.8c-0.5-1.9-0.9-3.8-1.5-5.6c-0.9-2.6-4.3-4.1-6.9-3.3c-1,0.3-0.8,1-0.8,1.6c0,3-0.2,5.9,0,8.9
				c0.2,2.2-1,2.4-2.6,2.2c-1.4-0.2-3.3,0.9-3.2-2c0.1-8.9,0.1-17.7,0-26.6c0-1.1,0-2.1,1.5-2.1c4.1-0.2,8.2-0.8,12.3,0.1
				c3.5,0.8,6.1,2.6,6.7,6.3c0.7,3.8-0.6,6.8-3.9,8.9c-0.3,0.2-0.6,0.4-0.8,0.6C1843.3,560.2,1843.3,560.3,1843.1,560.5z
				 M1833.1,553.2c0,5.4,0.6,5.9,5.2,4.8c3.2-0.8,4.7-3,4.2-6.1c-0.5-2.8-3-4.1-7.5-3.8c-3.6,0.3-1.3,3-2,4.6
				C1833.1,552.8,1833.1,553,1833.1,553.2z"/>
			<path class="st14" d="M1934.7,574.8c2.1-6.7,4.3-13.3,6.4-19.9c0.9-3,1.9-5.9,2.8-8.9c0.4-1.3,0.9-1.9,2.4-1.9
				c5.4,0,5.4-0.1,7.1,5.1c2.6,7.9,5.1,15.9,7.7,23.8c0.6,1.7,0.3,2.2-1.5,2.1c-3.9-0.1-3.9,0-5.1-3.7c-1.6-5.1-1.6-5.1-7.1-5.1
				c-4.4,0-4.4,0-5.6,4.3C1940.4,575.4,1940.4,575.4,1934.7,574.8z M1948,549c-0.8,2.6-1.3,4.5-1.9,6.4c-2.1,6.7-2.1,6.7,5,6.4
				c0.2,0,0.4-0.1,0.8-0.2C1950.6,557.6,1949.4,553.7,1948,549z"/>
			<path class="st14" d="M1853.8,559.6c0-4.6,0-9.1,0-13.7c0-1.4,0.4-1.9,1.9-1.9c4.8,0.1,9.6,0.1,14.4,0c2-0.1,1.8,1.1,1.9,2.4
				c0,1.4,0.1,2.5-1.9,2.4c-2.9-0.2-5.7,0-8.6-0.1c-1.3,0-1.7,0.4-1.8,1.7c-0.4,6.3-0.4,6.3,6,6.3c1,0,2,0.1,3,0
				c2.4-0.4,2.9,0.7,2.7,2.8c-0.1,1.5-0.6,1.9-1.9,1.8c-2.6-0.1-5.2,0-7.8,0c-1.3,0-2,0.2-1.9,1.8c0.1,1.8,0.1,3.7,0,5.6
				c-0.1,1.3,0.5,1.8,1.8,1.7c3.1-0.1,6.2,0.1,9.4-0.1c2.1-0.1,1.8,1.2,1.8,2.4c0,1.4,0.1,2.4-1.9,2.3c-5-0.2-10-0.1-14.9,0
				c-1.6,0-2-0.5-2-2C1853.8,568.5,1853.8,564.1,1853.8,559.6z"/>
			<path class="st14" d="M1966.2,559.5c0-4.3,0.1-8.6,0-12.9c0-1.7,0.4-2.4,2.2-2.5c3.9-0.2,7.7-0.7,11.5,0.3c4.4,1.2,6.8,4,7.1,8.1
				c0.3,4.5-1.8,8-5.8,9.7c-2.4,1.1-5,1.5-7.6,1.2c-1.6-0.1-1.8,0.3-1.8,1.7c0.1,2.5-0.1,5.1,0.1,7.6c0.1,1.5-0.2,2.3-2,2.2
				c-4.4-0.2-3.5,0.4-3.6-3.6C1966.1,567.4,1966.2,563.5,1966.2,559.5z M1974.3,548.1c-2.2-0.6-2.7,0.7-2.5,3.1c0.2,2.1,0,4.2,0,6.3
				c0,0.8,0,1.6,1.1,1.6c2.7,0.2,5.3,0.1,7.2-2.1c1.5-1.8,1.7-3.9,0.7-5.9C1979.6,548.6,1977.3,548.1,1974.3,548.1z"/>
			<path class="st14" d="M1888,543.6c1.1-0.1,2.6,0.2,4,0.5c2.9,0.7,2.9,0.8,2.1,3.7c-0.4,1.5-0.9,1.9-2.4,1.2
				c-1.8-0.8-3.8-0.9-5.7-0.6c-1.8,0.3-3.3,1.1-3.6,3c-0.4,2,0.8,3.1,2.4,4c2.4,1.3,5,1.9,7.3,3.5c3.8,2.6,5.1,7.1,3.2,11.1
				c-1.3,2.7-3.7,4.1-6.4,4.9c-3.7,1-7.3,0.5-11-0.6c-3-1-1-2.8-0.8-4.3c0.3-2,1.5-0.5,2.2-0.3c2.4,0.9,4.9,1.2,7.5,0.7
				c1.8-0.3,3.1-1.2,3.5-3.1c0.4-1.9-0.4-3.4-2-4.3c-2.3-1.2-4.8-2.1-7.1-3.3c-5.1-2.9-6.2-8.8-2.4-12.8
				C1881.1,544.3,1884.2,543.5,1888,543.6z"/>
			<path class="st14" d="M1907,561.9c0-3.6-0.1-7.2,0-10.9c0.1-2-0.6-2.5-2.4-2.3c-1.2,0.1-2.5-0.1-3.8,0.1
				c-2.2,0.3-2.7-0.7-2.6-2.7c0.1-1.5,0.3-2,2-2c6.5,0.1,13,0.1,19.5,0c1.9,0,2,0.8,2,2.2c0,1.4,0.2,2.6-2,2.5c-2.2-0.1-5-1-6.3,0.4
				c-1.5,1.5-0.5,4.3-0.5,6.6c-0.1,5.6-0.2,11.1,0,16.7c0.1,2.5-0.9,2.7-2.9,2.6c-1.8-0.1-3.2,0.2-3-2.5
				C1907.2,569,1907,565.4,1907,561.9z"/>
			<path class="st15" d="M2008.3,559.1c-2.8-1.1-3.1-3.5-3-6c0.1-1.3,0.3-2.5,0.4-3.8c0.1-2.1,0.2-4-2.8-4.4c-1.5-0.2-0.5-2-0.7-3
				c-0.2-1,0.6-0.9,1.3-1c4.9-0.4,7.5,2,7.4,6.9c0,1.8-0.3,3.7-0.5,5.5c-0.1,1.8,0.2,3.5,2.3,3.8c1.3,0.2,1.2,1,1.1,1.8
				c-0.1,0.8,0.5,2-0.9,2.2c-2.5,0.5-2.6,2.3-2.4,4.2c0.2,2,0.4,4,0.4,6c0.2,5.3-4,6.4-7.9,6.1c-1.1-0.1-0.9-0.9-0.8-1.5
				c0.2-0.8-0.8-2.2,0.9-2.4c2.6-0.3,2.8-2,2.6-4c-0.1-1.1-0.2-2.2-0.3-3.3C2005,562.7,2005.5,561.4,2008.3,559.1z"/>
			<path class="st15" d="M1816.5,559.2c2.9,1.5,3.3,3.8,3.1,6.2c-0.1,1.5-0.4,3-0.4,4.5c-0.1,1.8,0.2,3.4,2.5,3.6
				c1.9,0.3,0.9,1.8,1.1,2.8c0.3,1.4-0.9,1.1-1.7,1.1c-4.9,0.1-7.2-2.1-7-7c0-1.5,0.2-3,0.4-4.5c0.3-2.2,0.4-4.3-2.5-4.9
				c-1.3-0.3-0.6-1.5-0.7-2.4c-0.1-0.8-0.1-1.4,1.1-1.6c2.2-0.3,2.5-2,2.4-3.8c-0.2-2.2-0.4-4.4-0.5-6.6c0-4.9,3.9-6.3,7.9-5.9
				c1.4,0.1,0.7,1.3,0.7,2c0,0.7,0.7,2-1,2.1c-2.2,0-2.6,1.5-2.6,3.3c0.1,1.5,0.3,3,0.4,4.5C1819.8,555.4,1819.4,557.7,1816.5,559.2
				z"/>
			<path class="st14" d="M1991.9,559.6c0-4.5,0.1-8.9,0-13.4c0-1.6,0.4-2.2,2.1-2.1c4.4,0.2,3.6-0.5,3.6,3.6
				c0.1,8.4-0.1,16.8,0.1,25.2c0,2.3-1.1,2.2-2.6,2.1c-1.4-0.1-3.3,0.8-3.2-2C1992.1,568.5,1991.9,564,1991.9,559.6z"/>
			<path class="st15" d="M1924.1,553.7c0.1-2.5,2-4.2,4.5-4c2.3,0.2,3.9,2,3.9,4.4c-0.1,2.5-1.9,4.2-4.4,4.1
				C1925.6,558.1,1924,556.3,1924.1,553.7z"/>
			<path class="st15" d="M1928.2,573c-2.6,0-4.2-1.7-4.1-4.3c0-2.5,1.9-4.3,4.3-4.3c2.4,0.1,4.1,2,4,4.5
				C1932.4,571.4,1930.7,573,1928.2,573z"/>
		</g>
	</g>
</g>
<g>
	<g>
		<g>
			<rect x="2253.3" y="156.2" class="st16" width="192.3" height="533.7"/>
			<path class="st16" d="M2445.2,157.3v531.4h-191.5V157.3H2445.2 M2446,155h-193.2v536H2446V155L2446,155z"/>
		</g>
	</g>
	<g>
		<g transform="translate(-50.017 -515.51)">
			<path class="st17" d="M2375.1,891.4l26.1,15.1l26.1-15.1v-30.2l-26.1-15.1l-26.1,15.1V891.4z"/>
			<path class="st18" d="M2398.6,849.8l-18.9,10.9c0,0.3,0,0.7,0,1l18.9,10.9c1.6-1.2,3.8-1.2,5.4,0l18.9-10.9c0-0.3,0-0.7,0-1
				l-18.9-10.9C2402.3,851,2400.2,851,2398.6,849.8L2398.6,849.8z M2424.7,864.8l-19,11.1c0.2,2-0.9,3.9-2.7,4.7l0,21.7
				c0.3,0.1,0.6,0.3,0.9,0.5l18.9-10.9c-0.2-2,0.9-3.9,2.7-4.7v-21.9C2425.2,865.1,2425,865,2424.7,864.8L2424.7,864.8z
				 M2377.8,864.9c-0.3,0.2-0.6,0.4-0.9,0.5v21.9c1.8,0.8,2.9,2.7,2.7,4.7l18.9,10.9c0.3-0.2,0.6-0.4,0.9-0.5v-21.9
				c-1.8-0.8-2.9-2.7-2.7-4.7L2377.8,864.9L2377.8,864.9z"/>
		</g>
		<g transform="translate(0 -196.66)">
			<path class="st19" d="M2351.2,587.6l26.1-15.1v-30.2l-26.1,15.1V587.6z"/>
			<path class="st20" d="M2351.2,587.6v-30.2l-26.1-15.1v30.2L2351.2,587.6z"/>
			<path class="st21" d="M2325.1,542.4l26.1,15.1l26.1-15.1l-26.1-15.1C2351.2,527.3,2325.1,542.4,2325.1,542.4z"/>
		</g>
		<g transform="translate(-933.71 -584.21)">
			<g>
				<path d="M3249.2,993.5h-3.5v30.1h3.5V993.5z"/>
				<path d="M3264.7,1007.9c-1.4,0-5.2,0-5.2,0v-11.2h6.2c3.7,0,6.4,1.4,6.4,5C3272.1,1004.7,3271.6,1007.9,3264.7,1007.9z
					 M3259.5,1023.6v-12.9c1.5,0.1,3.7,0.3,4.9,0.3c8.9,0,11.3-3.8,11.3-9.4c0-5.8-4.4-8.1-10.1-8.1h-9.7v30.1H3259.5z"/>
				<path d="M3295.5,1006.7h-12.4v-10.1h12.8l0.3-3.1h-16.7v30.1h3.5v-14h12.4V1006.7L3295.5,1006.7z"/>
				<path d="M3300.5,1018.7c2.7,1.3,6.1,2.3,10,2.3c4.3,0,6.6-1.9,6.6-6c0-2.4-1-4.1-4.8-5l-5.9-1.5c-4.2-1-6.8-3.3-6.8-7.3
					c0-5.9,4.4-8.4,11-8.4c3.7,0,7,0.9,9,2.2l-1,2.8c-1.6-0.9-4.8-1.9-8-1.9c-4.8,0-7.3,1.6-7.3,5.1c0,2.3,1.6,3.6,4.5,4.3l5.6,1.4
					c4.5,1.1,7.4,3.3,7.4,8.2c0,6.3-4.2,9.2-10.3,9.2c-5.2,0-9-1.4-10.8-2.5L3300.5,1018.7L3300.5,1018.7z"/>
			</g>
		</g>
	</g>
</g>
<g>
	<g>
		<g>
			<rect x="125.2" y="156.2" class="st16" width="192.3" height="533.7"/>
			<path class="st16" d="M317.1,157.3v531.4H125.6V157.3H317.1 M317.9,155H124.8v536h193.2V155L317.9,155z"/>
		</g>
	</g>
	<g>
		<g transform="translate(-50.017 -515.51)">
			<path class="st17" d="M247.1,891.4l26.1,15.1l26.1-15.1v-30.2l-26.1-15.1l-26.1,15.1V891.4z"/>
			<path class="st18" d="M270.5,849.8l-18.9,10.9c0,0.3,0,0.7,0,1l18.9,10.9c1.6-1.2,3.8-1.2,5.4,0l18.9-10.9c0-0.3,0-0.7,0-1
				l-18.9-10.9C274.2,851,272.1,851,270.5,849.8L270.5,849.8z M296.6,864.8l-19,11.1c0.2,2-0.9,3.9-2.7,4.7l0,21.7
				c0.3,0.1,0.6,0.3,0.9,0.5l18.9-10.9c-0.2-2,0.9-3.9,2.7-4.7v-21.9C297.2,865.1,296.9,865,296.6,864.8L296.6,864.8z M249.7,864.9
				c-0.3,0.2-0.6,0.4-0.9,0.5v21.9c1.8,0.8,2.9,2.7,2.7,4.7l18.9,10.9c0.3-0.2,0.6-0.4,0.9-0.5v-21.9c-1.8-0.8-2.9-2.7-2.7-4.7
				L249.7,864.9L249.7,864.9z"/>
		</g>
		<g transform="translate(0 -196.66)">
			<path class="st19" d="M223.1,587.6l26.1-15.1v-30.2l-26.1,15.1V587.6z"/>
			<path class="st20" d="M223.1,587.6v-30.2L197,542.4v30.2L223.1,587.6z"/>
			<path class="st21" d="M197,542.4l26.1,15.1l26.1-15.1l-26.1-15.1C223.1,527.3,197,542.4,197,542.4z"/>
		</g>
		<g transform="translate(-933.71 -584.21)">
			<g>
				<path d="M1121.1,993.5h-3.5v30.1h3.5V993.5z"/>
				<path d="M1136.6,1007.9c-1.4,0-5.2,0-5.2,0v-11.2h6.2c3.7,0,6.4,1.4,6.4,5C1144,1004.7,1143.5,1007.9,1136.6,1007.9z
					 M1131.4,1023.6v-12.9c1.5,0.1,3.7,0.3,4.9,0.3c8.9,0,11.3-3.8,11.3-9.4c0-5.8-4.4-8.1-10.1-8.1h-9.7v30.1H1131.4z"/>
				<path d="M1167.4,1006.7H1155v-10.1h12.8l0.3-3.1h-16.7v30.1h3.5v-14h12.4L1167.4,1006.7L1167.4,1006.7z"/>
				<path d="M1172.4,1018.7c2.7,1.3,6.1,2.3,10,2.3c4.3,0,6.6-1.9,6.6-6c0-2.4-1-4.1-4.8-5l-5.9-1.5c-4.2-1-6.8-3.3-6.8-7.3
					c0-5.9,4.4-8.4,11-8.4c3.7,0,7,0.9,9,2.2l-1,2.8c-1.6-0.9-4.8-1.9-8-1.9c-4.8,0-7.3,1.6-7.3,5.1c0,2.3,1.6,3.6,4.5,4.3l5.6,1.4
					c4.5,1.1,7.4,3.3,7.4,8.2c0,6.3-4.2,9.2-10.3,9.2c-5.2,0-9-1.4-10.8-2.5L1172.4,1018.7L1172.4,1018.7z"/>
			</g>
		</g>
	</g>
</g>
<g>
	<g>
		<rect x="2046.1" y="156.2" class="st22" width="192.3" height="533.7"/>
		<path class="st22" d="M2238,157.3v531.4h-191.5V157.3H2238 M2238.9,155h-193.2v536h193.2V155L2238.9,155z"/>
	</g>
	<g id="QAdjX4.tif">
		<g>
			<path class="st23" d="M2107.3,423.2c3.1,3.2,4.7,7.2,7.4,11.1c-2.3,0-4.3,0.1-6.3,0c-0.9,0-1.4-0.8-1.8-1.5
				c-1.2-2.1-2.4-4.2-3.6-6.3c-0.3-0.4-0.5-0.9-0.8-1.3c-0.7-0.8-1.6-0.8-2.5-0.6c-1.1,0.2-0.5,1.1-0.5,1.7c-0.1,2.2-0.1,4.5,0,6.7
				c0,1.1-0.4,1.3-1.4,1.4c-4.8,0.1-4.8,0.1-4.8-4.7c0-6.6,0.1-13.2-0.1-19.8c0-1.8,0.5-2.1,2.1-2c2.4,0.1,4.7,0,7.1,0
				c1.4,0,2.8,0.1,4.2,0.5c3.1,0.8,5.4,2.5,5.9,5.8c0.5,3.5-0.5,6.4-3.7,8.3C2108.1,422.7,2107.7,422.9,2107.3,423.2z M2099,416.2
				c0,4.5,0,4.5,3.6,4c2.4-0.3,3.8-2.1,3.5-4.4c-0.2-2.5-2-3.6-5.9-3.3c-2.7,0.2-0.6,2.3-1.3,3.3C2099,415.9,2099,416,2099,416.2z"
				/>
			<path class="st23" d="M2145.3,432.1c-6.9,5.5-12.5,1-12.8-5.7c-0.1-1.5-0.1-2.9,0.3-4.4c1.3-6,6.2-8.3,12.2-5.7
				c0-2.7,0-5.2,0-7.8c0-1,0.2-1.4,1.4-1.4c4.4-0.1,4.4-0.1,4.4,4.2c0,7.1,0,14.2,0,21.4c0,1.3-0.3,1.8-1.7,1.7
				C2147.3,434.2,2145.5,434.7,2145.3,432.1z M2144.8,424.6c0-0.9-0.1-1.8,0-2.7c0.2-1.8-0.8-2.4-2.3-2.6c-1.8-0.3-3.1,0.5-3.8,2.2
				c-0.7,2-0.7,4.1-0.2,6.2c0.4,2,1.5,2.7,3.4,2.5c2-0.3,2.9-1.3,2.9-3.3C2144.8,426.1,2144.8,425.3,2144.8,424.6z"/>
			<path class="st23" d="M2170.7,424.9c0,2.5-0.1,5,0,7.4c0.1,1.7-0.5,2.1-2,1.9c-1.2-0.1-2.6,0.4-3.1-1.4c-0.2-0.6-0.6-0.2-0.9,0
				c-0.7,0.6-1.5,1-2.3,1.3c-4.5,1.5-8.6-1.1-8.9-5.9c-0.2-3.9-0.4-7.9,0-11.8c0.3-2.3,2.7-0.7,4.1-1c0.8-0.2,1.6-0.1,1.6,1.2
				c-0.1,3.4,0,6.9,0,10.3c0,1.2,0,2.4,1.2,3c1.3,0.7,2.5,0.2,3.7-0.4c0.9-0.5,1-1.2,1-2.1c0-3.6,0-7.1,0-10.7
				c0-1.1,0.3-1.4,1.4-1.4c4.4-0.1,4.4-0.1,4.4,4.2C2170.7,421.4,2170.7,423.2,2170.7,424.9z"/>
			<path class="st23" d="M2124.8,425.9c-1.6,0-3.2,0-4.8,0c-0.9,0-1.1,0.3-0.9,1.1c0.5,2.3,2.6,3.7,5.1,3.3c1.1-0.2,2.1-0.7,3-1.2
				c1.9-1,2.5,0.6,3.3,1.6c0.9,1.2-0.5,1.5-1.1,1.9c-3.5,2.5-9.2,2.5-12.5,0.1c-3.2-2.3-4.6-7.2-3.3-11.4c1.4-4.4,5.8-6.9,10.6-6.2
				c4.3,0.7,6.9,4,6.9,8.6c0,1.5-0.5,2.2-2.1,2.1C2127.7,425.8,2126.3,425.9,2124.8,425.9z M2122.5,422.6c0.4,0,0.8,0.1,1.1,0
				c0.8-0.2,2,0.6,2.3-0.5c0.2-1.2-0.6-2.2-1.8-2.6c-1.6-0.6-3-0.4-4.2,0.9c-0.5,0.6-1.1,1.3-0.8,2c0.3,0.6,1.1,0.2,1.7,0.3
				C2121.5,422.6,2122,422.6,2122.5,422.6z"/>
			<path class="st23" d="M2191.8,434c-4.7,1.4-7.5-0.2-9.1-4.4c-0.2-0.6-0.6-1.1-1.1-1.8c-0.9,1.5-1.9,2.9-2.7,4.5
				c-0.8,1.7-2,2.3-3.8,2.1c-1-0.1-2.1,0-3.5,0c1.8-2.8,3.4-5.4,5.2-7.9c1-1.3,1-2.3,0-3.6c-1.7-2.2-3.1-4.6-4.9-7.3
				c2.1,0,3.9,0,5.8,0c0.8,0,1.1,0.6,1.4,1.1c1,1.6,1.9,3.1,3,4.9c0.9-1.5,1.8-2.8,2.4-4.2c0.7-1.5,1.7-2,3.3-1.9
				c1.1,0.1,2.3,0,3.8,0c-1.9,2.7-3.5,5.2-5.3,7.7c-0.6,0.9-0.6,1.5,0,2.3C2188.2,428.3,2190,431.1,2191.8,434z"/>
			<path class="st24" d="M2125.7,354.4c-0.1,6,1.3,11.6,4,17c0.7,1.4,1.5,2.3,3.3,2.6c3.5,0.7,5.3,3.6,4.6,6.9
				c-0.6,2.9-3.6,4.8-6.6,4.3c-3.1-0.6-5.1-3.3-4.4-6.7c0.4-1.9-0.3-3.3-1.1-4.8c-5.4-10.8-6.5-21.8-2.1-33.2
				c4-10.5,14.1-16.8,24-15c7,1.3,11.6,5.8,14.7,11.9c1.5,2.9,2.5,5.9,2.8,9.1c0.1,1.1,1.4,3-0.4,3.1c-1.4,0.1-3.8,0.1-4.4-2.4
				c-0.5-2.1-1-4.2-1.8-6.1c-2-4.8-4.8-8.9-10.1-10.5c-5.9-1.8-13.5,1.1-17.4,6.6C2127.3,341.8,2125.7,347.4,2125.7,354.4z"/>
			<path class="st24" d="M2116.1,360.8c1.8,3.2,1.3,5.3-1.2,7.7c-6.8,6.6-7.8,14.7-3.1,21.2c4.6,6.3,11.4,6.8,18.1,5.5
				c10.3-2,18.4-7.6,24.2-16.3c0.9-1.3,1.1-2.5,0.3-4.1c-1.5-3-0.1-6.2,2.8-7.5c2.8-1.3,6-0.2,7.5,2.6c1.5,2.8,0.5,6.1-2.6,7.6
				c-1.6,0.8-2.4,1.9-3.3,3.3c-7.5,12.4-18.7,19.1-33.2,19.8c-7.7,0.4-14.7-2.2-18.7-9.3c-4.1-7.4-3.3-14.9,1-22
				C2110,365.9,2112.7,363.2,2116.1,360.8z"/>
			<path class="st24" d="M2150.3,397.7c2.3-2.4,4.2-4.3,7.8-2.6c2.6,1.2,5.7,1.3,8.6,0.9c10.4-1.3,16-10.8,12-20.4
				c-4.2-9.9-12.5-15-22.4-17.9c-2.6-0.7-5.3-1-8-1.3c-2.1-0.3-3.8,0-5.4,1.9c-2.1,2.4-5.5,2.2-7.8,0c-2.2-2.1-2.3-5.6-0.3-7.8
				c2-2.3,5.6-2.7,7.8-0.6c1.6,1.6,3.2,1.7,5.2,1.8c12.6,0.4,23,5.1,31.1,14.8c3.2,3.8,5.2,8.1,5.7,13.1c1.2,10.8-6.4,19.7-18,21.1
				C2161.1,401.2,2155.6,400.4,2150.3,397.7z"/>
		</g>
	</g>
</g>
<line class="st25" x1="458.4" y1="79.9" x2="458.4" y2="325.4"/>
<line class="st25" x1="458.4" y1="469.2" x2="458.4" y2="704.7"/>
<line class="st25" x1="1396" y1="79.9" x2="1396" y2="175.4"/>
<line class="st25" x1="1396" y1="639.2" x2="1396" y2="704.7"/>
<g>
	<path class="st26" d="M848.8,402.4c0,8.9,0.2,16.8,0.7,23.6h-13.9l-0.9-14.1h-0.4c-4.1,7-13.2,16.1-28.5,16.1
		c-13.6,0-29.8-7.5-29.8-37.8v-50.6h15.7v47.8c0,16.4,5,27.5,19.3,27.5c10.5,0,17.8-7.3,20.7-14.3c0.9-2.3,1.4-5.2,1.4-8v-53h15.7
		V402.4L848.8,402.4z"/>
	<path class="st27" d="M814.7,453.6v-16.3c-3.2,0.7-5.5,1.1-8.9,1.1c-2.1,0-4.1-0.1-6.1-0.4v12.6v38.6l27.3-27.3l23-23l2.5-2.5
		h-20.6L814.7,453.6z"/>
	<path class="st26" d="M848.8,402.4c0,8.9,0.2,16.8,0.7,23.6h-13.9l-0.9-14.1h-0.4c-4.1,7-13.2,16.1-28.5,16.1
		c-13.6,0-29.8-7.5-29.8-37.8v-50.6h15.7v47.8c0,16.4,5,27.5,19.3,27.5c10.5,0,17.8-7.3,20.7-14.3c0.9-2.3,1.4-5.2,1.4-8v-53h15.7
		V402.4L848.8,402.4z"/>
	<path class="st26" d="M872.8,409.9c4.6,3,12.9,6.2,20.7,6.2c11.4,0,16.8-5.7,16.8-12.8c0-7.5-4.5-11.6-16.1-15.9
		c-15.5-5.5-22.8-14.1-22.8-24.4c0-13.9,11.2-25.3,29.8-25.3c8.7,0,16.4,2.5,21.2,5.3l-3.9,11.4c-3.4-2.1-9.6-5-17.7-5
		c-9.3,0-14.5,5.4-14.5,11.8c0,7.1,5.2,10.3,16.4,14.6c15,5.7,22.7,13.2,22.7,26.1c0,15.2-11.8,25.9-32.3,25.9
		c-9.5,0-18.2-2.3-24.3-5.9L872.8,409.9z"/>
	<path class="st26" d="M872.8,409.9c4.6,3,12.9,6.2,20.7,6.2c11.4,0,16.8-5.7,16.8-12.8c0-7.5-4.5-11.6-16.1-15.9
		c-15.5-5.5-22.8-14.1-22.8-24.4c0-13.9,11.2-25.3,29.8-25.3c8.7,0,16.4,2.5,21.2,5.3l-3.9,11.4c-3.4-2.1-9.6-5-17.7-5
		c-9.3,0-14.5,5.4-14.5,11.8c0,7.1,5.2,10.3,16.4,14.6c15,5.7,22.7,13.2,22.7,26.1c0,15.2-11.8,25.9-32.3,25.9
		c-9.5,0-18.2-2.3-24.3-5.9L872.8,409.9z"/>
	<path class="st26" d="M954.4,385.6c0.4,21.2,13.9,30,29.6,30c11.2,0,18-2,23.9-4.5l2.7,11.2c-5.5,2.5-15,5.4-28.7,5.4
		c-26.6,0-42.5-17.5-42.5-43.5s15.3-46.6,40.5-46.6c28.2,0,35.7,24.8,35.7,40.7c0,3.2-0.4,5.7-0.5,7.3H954.4z M1000.4,374.4
		c0.2-10-4.1-25.5-21.8-25.5c-15.9,0-22.8,14.6-24.1,25.5H1000.4z"/>
	<path class="st26" d="M954.4,385.6c0.4,21.2,13.9,30,29.6,30c11.2,0,18-2,23.9-4.5l2.7,11.2c-5.5,2.5-15,5.4-28.7,5.4
		c-26.6,0-42.5-17.5-42.5-43.5s15.3-46.6,40.5-46.6c28.2,0,35.7,24.8,35.7,40.7c0,3.2-0.4,5.7-0.5,7.3H954.4z M1000.4,374.4
		c0.2-10-4.1-25.5-21.8-25.5c-15.9,0-22.8,14.6-24.1,25.5H1000.4z"/>
	<path class="st27" d="M935.6,411.6h-1.5c-1.7,6.3-5.2,11.8-10.1,16h25.1C943.5,423.4,939,418,935.6,411.6z"/>
	<path class="st26" d="M1072.2,337.6c-8.8,0-16.8,5.1-21.5,13.6v-11.6h-16v63.3c0,4.7-4,8.7-8.7,8.7h-7.7l3.8,16h3.9
		c13.6,0,24.7-11.1,24.7-24.7v-32.2c2.6-10.8,10.2-18.3,20.6-18.3c2.1,0,3.7,0.2,5.4,0.5v-14.8
		C1075.3,337.8,1074,337.6,1072.2,337.6z"/>
	<path class="st26" d="M729.7,251.3v151.5c0,13.6,11.1,24.7,24.7,24.7h19.8c-4.3-4.3-7.5-9.6-9.6-16h-10.2c-4.7,0-8.7-4-8.7-8.7
		V251.3c0-4.7,4-8.7,8.7-8.7h126.2c-7.4-5.8-15.1-11.2-23.1-16H754.4C740.8,226.6,729.7,237.7,729.7,251.3z"/>
	<path class="st27" d="M1026,226.6h-19.8H886.7c6.8,5,13.3,10.3,19.6,16h109.5h10.2c0.9,0,1.8,0.1,2.6,0.4c1.1,0.3,2.1,0.9,3,1.6
		c0.4,0.4,0.8,0.8,1.2,1.2c0.7,0.9,1.3,1.9,1.6,3c0.3,0.8,0.4,1.7,0.4,2.6v52.2v25h16v-25v-52.3
		C1050.7,237.7,1039.6,226.6,1026,226.6z"/>
</g>
</svg>
