<?xml version="1.0" encoding="utf-8"?>
<!-- Generator: Adobe Illustrator 24.0.2, SVG Export Plug-In . SVG Version: 6.00 Build 0)  -->
<svg version="1.1" id="Layer_1" xmlns="http://www.w3.org/2000/svg" xmlns:xlink="http://www.w3.org/1999/xlink" x="0px" y="0px"
	 width="2048px" height="2048px" viewBox="0 0 2048 2048" style="enable-background:new 0 0 2048 2048;" xml:space="preserve">
<g>
	<rect x="121.5" y="997.5" style="fill:#FFFFFF;" width="654" height="450"/>
	<path d="M775,998v449H122V998H775 M776,997H121v451h655V997L776,997z"/>
</g>
<g>
	<rect x="257.5" y="1327.5" style="fill:#FFFFFF;" width="352" height="89"/>
	<path d="M609,1328v88H258v-88H609 M610,1327H257v90h353V1327L610,1327z"/>
</g>
<g>
	<rect x="257.5" y="1209.5" style="fill:#FFFFFF;" width="352" height="89"/>
	<path d="M609,1210v88H258v-88H609 M610,1209H257v90h353V1209L610,1209z"/>
</g>
<g>
	<rect x="1574.5" y="266.5" style="fill:#FFFFFF;" width="390" height="536"/>
	<path d="M1964,267v535h-389V267H1964 M1965,266h-391v537h391V266L1965,266z"/>
</g>
<g>
	<rect x="1402.5" y="266.5" style="fill:#FFFFFF;" width="140" height="536"/>
	<path d="M1542,267v535h-139V267H1542 M1543,266h-141v537h141V266L1543,266z"/>
</g>
<g>
	<rect x="99.5" y="266.5" style="fill:#FFFFFF;" width="536" height="536"/>
	<path d="M635,267v535H100V267H635 M636,266H99v537h537V266L636,266z"/>
</g>
<g>
	<rect x="1713.5" y="284.5" style="fill:#FFFFFF;" width="233" height="233"/>
	<path d="M1946,285v232h-232V285H1946 M1947,284h-234v234h234V284L1947,284z"/>
</g>
<rect x="1768.6" y="372.5" style="fill:none;" width="122.9" height="57.1"/>
<text transform="matrix(1 0 0 1 1785.3497 408.6801)" style="font-family:'MyriadPro-Regular'; font-size:51px;">IPFS</text>
<g>
	<rect x="1127.5" y="550.5" style="fill:#FFFFFF;" width="241" height="252"/>
	<path d="M1368,551v251h-240V551H1368 M1369,550h-242v253h242V550L1369,550z"/>
</g>
<g>
	<rect x="1127.5" y="266.5" style="fill:#FFFFFF;" width="241" height="252"/>
	<path d="M1368,267v251h-240V267H1368 M1369,266h-242v253h242V266L1369,266z"/>
</g>
<rect x="1185.6" y="631.5" style="fill:none;" width="122.9" height="57.1"/>
<text transform="matrix(1 0 0 1 1195.4908 667.6801)" style="font-family:'MyriadPro-Regular'; font-size:51px;">REST</text>
<rect x="179.9" y="1344.1" style="fill:none;" width="493.1" height="94.5"/>
<text transform="matrix(1 0 0 1 285.6816 1380.3428)"><tspan x="0" y="0" style="font-family:'MyriadPro-Regular'; font-size:51px;">USER_</tspan><tspan x="136.2" y="0" style="font-family:'MyriadPro-Regular'; font-size:51px; letter-spacing:-1;">T</tspan><tspan x="160.1" y="0" style="font-family:'MyriadPro-Regular'; font-size:51px;">OKEN</tspan></text>
<rect x="257" y="1234" style="fill:none;" width="353" height="79"/>
<text transform="matrix(1 0 0 1 305.3125 1270.2095)"><tspan x="0" y="0" style="font-family:'MyriadPro-Regular'; font-size:51px;">APP_</tspan><tspan x="111" y="0" style="font-family:'MyriadPro-Regular'; font-size:51px; letter-spacing:-1;">T</tspan><tspan x="134.9" y="0" style="font-family:'MyriadPro-Regular'; font-size:51px;">OKEN</tspan></text>
<text transform="matrix(1 0 0 1 282.8027 1165.1699)" style="font-family:'MyriadPro-Regular'; font-size:54.6933px;">RSASHA512</text>
<rect x="195.5" y="1053.4" style="fill:none;" width="499.5" height="60.6"/>
<text transform="matrix(1 0 0 1 220.5479 1089.6235)"><tspan x="0" y="0" style="font-family:'MyriadPro-Regular'; font-size:51px;">J</tspan><tspan x="18.9" y="0" style="font-family:'MyriadPro-Regular'; font-size:51px; letter-spacing:1;">W</tspan><tspan x="63.7" y="0" style="font-family:'MyriadPro-Regular'; font-size:51px;">T_</tspan><tspan x="114.5" y="0" style="font-family:'MyriadPro-Regular'; font-size:51px;">A</tspan><tspan x="145" y="0" style="font-family:'MyriadPro-Regular'; font-size:51px; letter-spacing:-1;">C</tspan><tspan x="173.5" y="0" style="font-family:'MyriadPro-Regular'; font-size:51px;">CESS_</tspan><tspan x="304" y="0" style="font-family:'MyriadPro-Regular'; font-size:51px; letter-spacing:-1;">T</tspan><tspan x="327.9" y="0" style="font-family:'MyriadPro-Regular'; font-size:51px;">OKEN</tspan></text>
<rect x="1137" y="372" style="fill:none;" width="220" height="84"/>
<text transform="matrix(1 0 0 1 1141.2784 408.2094)"><tspan x="0" y="0" style="font-family:'MyriadPro-Regular'; font-size:51px;">G</tspan><tspan x="32.9" y="0" style="font-family:'MyriadPro-Regular'; font-size:51px;">R</tspan><tspan x="60.6" y="0" style="font-family:'MyriadPro-Regular'; font-size:51px;">APHQL</tspan></text>
<rect x="1362" y="493" style="fill:none;" width="220" height="84"/>
<text transform="matrix(1 0 0 1 1411.3107 529.2094)"><tspan x="0" y="0" style="font-family:'MyriadPro-Regular'; font-size:51px; letter-spacing:-1;">A</tspan><tspan x="29.8" y="0" style="font-family:'MyriadPro-Regular'; font-size:51px;">UTH</tspan></text>
<rect x="228" y="350" style="fill:none;" width="220" height="84"/>
<text transform="matrix(1 0 0 1 263.0826 386.2094)" style="font-family:'MyriadPro-Regular'; font-size:51px;">CLIENT</text>
<line style="fill:none;stroke:#000000;stroke-miterlimit:10;" x1="708" y1="392" x2="1024" y2="392"/>
<line style="fill:none;stroke:#000000;stroke-miterlimit:10;" x1="708" y1="434.5" x2="1024" y2="434.5"/>
<line style="fill:none;stroke:#000000;stroke-miterlimit:10;" x1="708" y1="655" x2="1024" y2="655"/>
<line style="fill:none;stroke:#000000;stroke-miterlimit:10;" x1="708" y1="697.5" x2="1024" y2="697.5"/>
</svg>
